<svg width="1024" height="1024" viewBox="0 0 1024 1024" fill="none" xmlns="http://www.w3.org/2000/svg">
<rect width="1024" height="1024" rx="75" fill="black"/>
<path d="M416.831 302.233L460.082 284.606L433.479 317.528L424.669 387.964L404.012 386.056L416.831 302.233Z" fill="#0BD2CE"/>
<path d="M435.502 434.126L463.033 446.074L469.427 466.079L424.67 444.169L435.502 434.126Z" fill="#0BD2CE"/>
<path d="M442.376 453.14L462.814 446.596L475.821 483.226L455.163 490.847L442.376 453.14Z" fill="#0BD2CE"/>
<path d="M376.187 429.944L452.433 480.708L455.694 491.241L366.633 445.121L376.187 429.944Z" fill="#0BD2CE"/>
<path d="M475.638 505.319L455.163 490.847L475.821 483.226L475.638 505.319Z" fill="#0BD2CE"/>
<path d="M340.074 377.338L363.19 377.338L377.197 432.257L366.633 445.121L340.074 377.338Z" fill="#0BD2CE"/>
<path d="M389.749 278.89L375.978 328.426L363.19 377.486L340.074 377.486L389.749 278.89Z" fill="#0BD2CE"/>
<path d="M416.8 302.229L490.575 271.745L490.575 290.798L425.643 320.551L416.8 302.229Z" fill="#0BD2CE"/>
<path d="M450.737 363.196L491 330L491 348L462.453 374.428L450.737 363.196Z" fill="#0BD2CE"/>
<path d="M462.33 374.238L491 348L490.703 362.356L470.109 381.751L462.33 374.238Z" fill="#4444A4"/>
<path d="M365.649 553.719L413.693 521.962L437.457 530.857L380.896 573.248L365.649 553.719Z" fill="#0BD2CE"/>
<path d="M365.649 553.719L389.749 567.056L429.588 684.228L411.882 689.943L365.649 553.719Z" fill="#0BD2CE"/>
<path d="M460.082 743.29L411.882 689.943L429.588 684.228L460.082 743.29Z" fill="#0BD2CE"/>
<path d="M324 470L437 531L406.048 529.094L324 530.047V470Z" fill="#0BD2CE"/>
<path d="M292.984 610.078L324.335 469.889L347.146 499.832L292.984 610.078Z" fill="#0BD2CE"/>
<path d="M417.784 568.961L442.799 577.535L455.163 606.113L438.441 612.781L417.784 568.961Z" fill="#0BD2CE"/>
<path d="M417.784 568.961L457.131 553.719L461.557 568.961L467.459 587.061L422.524 578.725L417.784 568.961Z" fill="#0BD2CE"/>
<path d="M475.821 639.455L438.441 612.781L455.163 606.113L475.821 639.455Z" fill="#0BD2CE"/>
<path d="M404.012 386.059L424.67 387.964L441.392 438.453L424.67 444.169L404.012 386.059Z" fill="#0BD2CE"/>
<path d="M564.169 302.233L520.918 284.605L547.521 317.528L556.331 387.964L576.988 386.056L564.169 302.233Z" fill="#0BD2CE"/>
<path d="M545.498 434.126L517.967 446.074L511.573 466.079L556.33 444.169L545.498 434.126Z" fill="#0BD2CE"/>
<path d="M538.624 453.14L518.186 446.596L505.179 483.226L525.837 490.847L538.624 453.14Z" fill="#0BD2CE"/>
<path d="M604.813 429.944L528.567 480.708L525.306 491.241L614.367 445.121L604.813 429.944Z" fill="#0BD2CE"/>
<path d="M505.362 505.319L525.837 490.847L505.179 483.226L505.362 505.319Z" fill="#0BD2CE"/>
<path d="M640.926 377.338L617.81 377.338L603.803 432.257L614.367 445.121L640.926 377.338Z" fill="#0BD2CE"/>
<path d="M591.251 278.89L605.022 328.426L617.81 377.486L640.926 377.486L591.251 278.89Z" fill="#0BD2CE"/>
<path d="M564.2 302.229L490.424 271.745L490.424 290.798L555.356 320.551L564.2 302.229Z" fill="#0BD2CE"/>
<path d="M530.263 363.196L490.995 330.005L490.968 347.917L518.514 374.462L530.263 363.196Z" fill="#0BD2CE"/>
<path d="M518.948 374.238L491 348L490.424 362.356L511.169 381.751L518.948 374.238Z" fill="#4444A4"/>
<ellipse cx="9" cy="10" rx="9" ry="10" transform="matrix(-1 0 0 1 500 382)" fill="#0BD2CE"/>
<ellipse cx="10" cy="15.5" rx="10" ry="15.5" transform="matrix(-1 0 0 1 500 533)" fill="white"/>
<path d="M615.351 553.719L567.307 521.962L543.543 530.857L600.104 573.248L615.351 553.719Z" fill="#0BD2CE"/>
<path d="M615.351 553.719L591.251 567.056L551.412 684.228L569.118 689.943L615.351 553.719Z" fill="#0BD2CE"/>
<path d="M520.918 743.29L569.118 689.943L551.412 684.228L520.918 743.29Z" fill="#0BD2CE"/>
<path d="M657 470L544 531L574.952 529.094L657 530.047V470Z" fill="#0BD2CE"/>
<path d="M688.016 610.078L656.665 469.889L633.854 499.832L688.016 610.078Z" fill="#0BD2CE"/>
<path d="M563.216 568.961L538.201 577.535L525.836 606.113L542.559 612.781L563.216 568.961Z" fill="#0BD2CE"/>
<path d="M563.216 568.961L523.869 553.719L519.443 568.961L513.541 587.061L558.476 578.725L563.216 568.961Z" fill="#0BD2CE"/>
<path d="M505.179 639.455L542.559 612.781L525.837 606.113L505.179 639.455Z" fill="#0BD2CE"/>
<path d="M576.988 386.059L556.33 387.964L539.608 438.453L556.33 444.169L576.988 386.059Z" fill="#0BD2CE"/>
<path d="M320.83 811.455C320.778 811.023 320.571 810.688 320.207 810.449C319.844 810.21 319.398 810.091 318.869 810.091C318.483 810.091 318.145 810.153 317.855 810.278C317.568 810.403 317.344 810.575 317.182 810.794C317.023 811.013 316.943 811.261 316.943 811.54C316.943 811.773 316.999 811.973 317.109 812.141C317.223 812.305 317.368 812.443 317.544 812.554C317.72 812.662 317.905 812.751 318.098 812.822C318.291 812.891 318.469 812.946 318.631 812.989L319.517 813.227C319.744 813.287 319.997 813.369 320.276 813.474C320.557 813.58 320.825 813.723 321.081 813.905C321.339 814.084 321.553 814.314 321.72 814.595C321.888 814.876 321.972 815.222 321.972 815.631C321.972 816.102 321.848 816.528 321.601 816.909C321.357 817.29 320.999 817.592 320.527 817.817C320.058 818.041 319.489 818.153 318.818 818.153C318.193 818.153 317.652 818.053 317.195 817.851C316.74 817.649 316.382 817.368 316.121 817.007C315.862 816.646 315.716 816.227 315.682 815.75H316.773C316.801 816.08 316.912 816.352 317.105 816.568C317.301 816.781 317.548 816.94 317.847 817.045C318.148 817.148 318.472 817.199 318.818 817.199C319.222 817.199 319.584 817.134 319.905 817.003C320.226 816.869 320.48 816.685 320.668 816.449C320.855 816.21 320.949 815.932 320.949 815.614C320.949 815.324 320.868 815.088 320.706 814.906C320.544 814.724 320.331 814.577 320.067 814.463C319.803 814.349 319.517 814.25 319.21 814.165L318.136 813.858C317.455 813.662 316.915 813.382 316.517 813.018C316.119 812.655 315.92 812.179 315.92 811.591C315.92 811.102 316.053 810.676 316.317 810.312C316.584 809.946 316.942 809.662 317.391 809.46C317.842 809.256 318.347 809.153 318.903 809.153C319.466 809.153 319.966 809.254 320.403 809.456C320.841 809.655 321.188 809.928 321.443 810.274C321.702 810.621 321.838 811.014 321.852 811.455H320.83ZM323.573 820.455V811.455H324.544V812.494H324.664C324.738 812.381 324.84 812.236 324.971 812.06C325.104 811.881 325.294 811.722 325.542 811.582C325.792 811.44 326.13 811.369 326.556 811.369C327.107 811.369 327.593 811.507 328.013 811.783C328.434 812.058 328.762 812.449 328.998 812.955C329.233 813.46 329.351 814.057 329.351 814.744C329.351 815.438 329.233 816.038 328.998 816.547C328.762 817.053 328.435 817.445 328.017 817.723C327.6 817.999 327.118 818.136 326.573 818.136C326.152 818.136 325.816 818.067 325.563 817.928C325.31 817.786 325.115 817.625 324.979 817.446C324.843 817.264 324.738 817.114 324.664 816.994H324.578V820.455H323.573ZM324.561 814.727C324.561 815.222 324.634 815.658 324.779 816.036C324.924 816.411 325.135 816.705 325.414 816.918C325.692 817.128 326.033 817.233 326.436 817.233C326.857 817.233 327.208 817.122 327.489 816.901C327.773 816.676 327.986 816.375 328.128 815.997C328.273 815.616 328.346 815.193 328.346 814.727C328.346 814.267 328.275 813.852 328.132 813.483C327.993 813.111 327.782 812.817 327.498 812.601C327.216 812.382 326.863 812.273 326.436 812.273C326.027 812.273 325.684 812.376 325.405 812.584C325.127 812.788 324.917 813.075 324.775 813.445C324.632 813.811 324.561 814.239 324.561 814.727ZM330.885 818V811.455H331.891V818H330.885ZM331.397 810.364C331.201 810.364 331.032 810.297 330.89 810.163C330.75 810.03 330.681 809.869 330.681 809.682C330.681 809.494 330.75 809.334 330.89 809.2C331.032 809.067 331.201 809 331.397 809C331.593 809 331.76 809.067 331.9 809.2C332.042 809.334 332.113 809.494 332.113 809.682C332.113 809.869 332.042 810.03 331.9 810.163C331.76 810.297 331.593 810.364 331.397 810.364ZM336.205 818.136C335.659 818.136 335.178 817.999 334.76 817.723C334.342 817.445 334.016 817.053 333.78 816.547C333.544 816.038 333.426 815.438 333.426 814.744C333.426 814.057 333.544 813.46 333.78 812.955C334.016 812.449 334.344 812.058 334.764 811.783C335.185 811.507 335.67 811.369 336.222 811.369C336.648 811.369 336.984 811.44 337.232 811.582C337.482 811.722 337.672 811.881 337.803 812.06C337.936 812.236 338.04 812.381 338.114 812.494H338.199V809.273H339.205V818H338.233V816.994H338.114C338.04 817.114 337.935 817.264 337.798 817.446C337.662 817.625 337.467 817.786 337.214 817.928C336.962 818.067 336.625 818.136 336.205 818.136ZM336.341 817.233C336.744 817.233 337.085 817.128 337.364 816.918C337.642 816.705 337.854 816.411 337.999 816.036C338.143 815.658 338.216 815.222 338.216 814.727C338.216 814.239 338.145 813.811 338.003 813.445C337.861 813.075 337.651 812.788 337.372 812.584C337.094 812.376 336.75 812.273 336.341 812.273C335.915 812.273 335.56 812.382 335.276 812.601C334.994 812.817 334.783 813.111 334.641 813.483C334.501 813.852 334.432 814.267 334.432 814.727C334.432 815.193 334.503 815.616 334.645 815.997C334.79 816.375 335.003 816.676 335.284 816.901C335.568 817.122 335.92 817.233 336.341 817.233ZM343.93 818.136C343.3 818.136 342.756 817.997 342.298 817.719C341.844 817.438 341.493 817.045 341.246 816.543C341.001 816.037 340.879 815.449 340.879 814.778C340.879 814.108 341.001 813.517 341.246 813.006C341.493 812.491 341.837 812.091 342.277 811.804C342.72 811.514 343.237 811.369 343.828 811.369C344.169 811.369 344.506 811.426 344.838 811.54C345.17 811.653 345.473 811.838 345.746 812.094C346.018 812.347 346.236 812.682 346.398 813.099C346.56 813.517 346.641 814.031 346.641 814.642V815.068H341.595V814.199H345.618C345.618 813.83 345.544 813.5 345.396 813.21C345.251 812.92 345.044 812.692 344.774 812.524C344.507 812.357 344.192 812.273 343.828 812.273C343.428 812.273 343.081 812.372 342.788 812.571C342.499 812.767 342.276 813.023 342.119 813.338C341.963 813.653 341.885 813.991 341.885 814.352V814.932C341.885 815.426 341.97 815.845 342.141 816.189C342.314 816.53 342.554 816.79 342.861 816.969C343.168 817.145 343.524 817.233 343.93 817.233C344.195 817.233 344.433 817.196 344.646 817.122C344.862 817.045 345.048 816.932 345.205 816.781C345.361 816.628 345.482 816.437 345.567 816.21L346.538 816.483C346.436 816.812 346.264 817.102 346.023 817.352C345.781 817.599 345.483 817.793 345.128 817.932C344.773 818.068 344.374 818.136 343.93 818.136ZM348.17 818V811.455H349.142V812.443H349.21C349.33 812.119 349.545 811.857 349.858 811.655C350.17 811.453 350.523 811.352 350.915 811.352C350.989 811.352 351.081 811.354 351.192 811.357C351.303 811.359 351.386 811.364 351.443 811.369V812.392C351.409 812.384 351.331 812.371 351.209 812.354C351.089 812.334 350.963 812.324 350.83 812.324C350.511 812.324 350.227 812.391 349.977 812.524C349.73 812.655 349.534 812.837 349.389 813.07C349.247 813.3 349.176 813.562 349.176 813.858V818H348.17Z" fill="black"/>
<path d="M203.889 818.446C203.747 816.884 203.115 815.669 201.993 814.803C200.885 813.922 199.301 813.482 197.241 813.482C195.878 813.482 194.741 813.659 193.832 814.014C192.923 814.369 192.241 814.859 191.787 815.484C191.332 816.095 191.098 816.798 191.084 817.594C191.055 818.247 191.183 818.822 191.467 819.32C191.766 819.817 192.192 820.257 192.746 820.641C193.314 821.01 193.996 821.337 194.791 821.621C195.587 821.905 196.482 822.153 197.476 822.366L201.226 823.219C203.385 823.688 205.288 824.312 206.936 825.094C208.598 825.875 209.99 826.805 211.112 827.885C212.249 828.964 213.108 830.207 213.69 831.614C214.273 833.02 214.571 834.597 214.585 836.344C214.571 839.099 213.875 841.464 212.497 843.439C211.119 845.413 209.138 846.926 206.553 847.977C203.982 849.028 200.878 849.554 197.241 849.554C193.591 849.554 190.409 849.007 187.696 847.913C184.983 846.82 182.874 845.158 181.368 842.928C179.862 840.697 179.088 837.878 179.045 834.469H189.145C189.23 835.875 189.607 837.047 190.274 837.984C190.942 838.922 191.858 839.632 193.023 840.115C194.202 840.598 195.565 840.839 197.114 840.839C198.534 840.839 199.741 840.648 200.736 840.264C201.744 839.881 202.518 839.348 203.058 838.666C203.598 837.984 203.875 837.203 203.889 836.322C203.875 835.499 203.619 834.795 203.122 834.213C202.625 833.616 201.858 833.105 200.821 832.679C199.798 832.239 198.491 831.834 196.901 831.464L192.341 830.399C188.562 829.533 185.587 828.134 183.413 826.202C181.24 824.256 180.161 821.628 180.175 818.318C180.161 815.619 180.885 813.254 182.348 811.223C183.811 809.192 185.835 807.608 188.42 806.472C191.006 805.335 193.953 804.767 197.263 804.767C200.643 804.767 203.577 805.342 206.062 806.493C208.562 807.629 210.501 809.227 211.879 811.287C213.257 813.347 213.96 815.733 213.989 818.446H203.889ZM219.912 849V805.364H237.938C241.205 805.364 244.024 806.003 246.396 807.281C248.783 808.545 250.622 810.314 251.915 812.587C253.207 814.845 253.854 817.473 253.854 820.47C253.854 823.482 253.193 826.116 251.872 828.375C250.565 830.619 248.697 832.359 246.268 833.595C243.839 834.831 240.956 835.449 237.618 835.449H226.496V827.139H235.658C237.249 827.139 238.577 826.862 239.642 826.308C240.722 825.754 241.538 824.98 242.092 823.986C242.646 822.977 242.923 821.805 242.923 820.47C242.923 819.121 242.646 817.956 242.092 816.976C241.538 815.982 240.722 815.214 239.642 814.675C238.563 814.135 237.234 813.865 235.658 813.865H230.459V849H219.912ZM269.599 805.364V849H259.053V805.364H269.599ZM292.35 849H276.221V805.364H292.328C296.775 805.364 300.603 806.237 303.813 807.984C307.037 809.717 309.523 812.217 311.27 815.484C313.017 818.737 313.891 822.629 313.891 827.161C313.891 831.706 313.017 835.612 311.27 838.879C309.537 842.146 307.059 844.653 303.834 846.401C300.61 848.134 296.782 849 292.35 849ZM286.767 840.009H291.945C294.388 840.009 296.455 839.597 298.145 838.773C299.85 837.935 301.135 836.578 302.002 834.703C302.882 832.814 303.323 830.3 303.323 827.161C303.323 824.021 302.882 821.521 302.002 819.661C301.121 817.786 299.821 816.436 298.103 815.612C296.398 814.774 294.296 814.355 291.796 814.355H286.767V840.009ZM320.049 849V805.364H350.475V813.929H330.596V822.878H348.919V831.464H330.596V840.435H350.475V849H320.049ZM357.08 849V805.364H375.105C378.373 805.364 381.192 805.953 383.564 807.132C385.951 808.297 387.79 809.973 389.083 812.161C390.375 814.334 391.022 816.912 391.022 819.895C391.022 822.92 390.361 825.491 389.04 827.608C387.719 829.71 385.844 831.315 383.415 832.423C380.986 833.517 378.11 834.064 374.786 834.064H363.387V825.754H372.826C374.417 825.754 375.745 825.548 376.81 825.136C377.89 824.71 378.706 824.071 379.26 823.219C379.814 822.352 380.091 821.244 380.091 819.895C380.091 818.545 379.814 817.43 379.26 816.55C378.706 815.655 377.89 814.987 376.81 814.547C375.73 814.092 374.402 813.865 372.826 813.865H367.627V849H357.08ZM381.647 829.057L392.513 849H381.007L370.354 829.057H381.647ZM425.826 849H409.697V805.364H425.805C430.251 805.364 434.079 806.237 437.289 807.984C440.514 809.717 443 812.217 444.747 815.484C446.494 818.737 447.368 822.629 447.368 827.161C447.368 831.706 446.494 835.612 444.747 838.879C443.014 842.146 440.535 844.653 437.311 846.401C434.086 848.134 430.258 849 425.826 849ZM420.244 840.009H425.422C427.865 840.009 429.931 839.597 431.622 838.773C433.326 837.935 434.612 836.578 435.478 834.703C436.359 832.814 436.799 830.3 436.799 827.161C436.799 824.021 436.359 821.521 435.478 819.661C434.598 817.786 433.298 816.436 431.579 815.612C429.875 814.774 427.772 814.355 425.272 814.355H420.244V840.009ZM453.525 849V805.364H483.951V813.929H464.072V822.878H482.396V831.464H464.072V840.435H483.951V849H453.525ZM500.464 805.364L510.223 837.324H510.585L520.343 805.364H532.147L517.424 849H503.383L488.66 805.364H500.464ZM536.846 849V805.364H567.272V813.929H547.392V822.878H565.716V831.464H547.392V840.435H567.272V849H536.846ZM573.877 849V805.364H584.424V840.435H602.577V849H573.877ZM647.524 827.182C647.524 831.983 646.6 836.053 644.754 839.391C642.907 842.729 640.407 845.264 637.254 846.997C634.115 848.73 630.592 849.597 626.686 849.597C622.765 849.597 619.235 848.723 616.096 846.976C612.957 845.229 610.464 842.693 608.618 839.369C606.785 836.031 605.869 831.969 605.869 827.182C605.869 822.381 606.785 818.311 608.618 814.973C610.464 811.635 612.957 809.099 616.096 807.366C619.235 805.634 622.765 804.767 626.686 804.767C630.592 804.767 634.115 805.634 637.254 807.366C640.407 809.099 642.907 811.635 644.754 814.973C646.6 818.311 647.524 822.381 647.524 827.182ZM636.743 827.182C636.743 824.341 636.338 821.94 635.528 819.98C634.733 818.02 633.582 816.536 632.076 815.527C630.585 814.518 628.788 814.014 626.686 814.014C624.598 814.014 622.801 814.518 621.295 815.527C619.789 816.536 618.632 818.02 617.822 819.98C617.027 821.94 616.629 824.341 616.629 827.182C616.629 830.023 617.027 832.423 617.822 834.384C618.632 836.344 619.789 837.828 621.295 838.837C622.801 839.845 624.598 840.349 626.686 840.349C628.788 840.349 630.585 839.845 632.076 838.837C633.582 837.828 634.733 836.344 635.528 834.384C636.338 832.423 636.743 830.023 636.743 827.182ZM653.681 849V805.364H671.707C674.974 805.364 677.794 806.003 680.166 807.281C682.552 808.545 684.392 810.314 685.684 812.587C686.977 814.845 687.623 817.473 687.623 820.47C687.623 823.482 686.963 826.116 685.642 828.375C684.335 830.619 682.467 832.359 680.038 833.595C677.609 834.831 674.725 835.449 671.387 835.449H660.265V827.139H669.427C671.018 827.139 672.346 826.862 673.412 826.308C674.491 825.754 675.308 824.98 675.862 823.986C676.416 822.977 676.693 821.805 676.693 820.47C676.693 819.121 676.416 817.956 675.862 816.976C675.308 815.982 674.491 815.214 673.412 814.675C672.332 814.135 671.004 813.865 669.427 813.865H664.228V849H653.681ZM692.822 805.364H705.883L716.963 832.381H717.474L728.554 805.364H741.615V849H731.345V822.196H730.983L720.5 848.723H713.937L703.454 822.047H703.092V849H692.822V805.364ZM748.193 849V805.364H778.619V813.929H758.74V822.878H777.064V831.464H758.74V840.435H778.619V849H748.193ZM822.362 805.364V849H813.413L796.048 823.815H795.771V849H785.224V805.364H794.301L811.474 830.506H811.837V805.364H822.362ZM827.566 813.929V805.364H864.449V813.929H851.217V849H840.819V813.929H827.566Z" fill="white"/>
</svg>
